<svg width="35" height="32" viewBox="0 0 35 32" fill="none" xmlns="http://www.w3.org/2000/svg">
<path d="M0.599976 10.0798V9.59983H9.57707V10.0798L7.68715 10.5598V31.04L9.57707 31.52V32H0.599976V31.52L2.48989 31.04V10.5598L0.599976 10.0798Z" fill="url(#paint0_linear_150_485)"/>
<path d="M1.38006 10.0798V9.59983H10.3572V10.0798L8.46724 10.5598V20.4799H15.2394V10.5598L13.3495 10.0798V9.59983H22.3266V10.0798L20.4367 10.5598V31.04L22.3266 31.52V32H13.3495V31.52L15.2394 31.04V21.2799H8.46724V31.04L10.3572 31.52V32H1.38006V31.52L3.26997 31.04V10.5598L1.38006 10.0798Z" fill="url(#paint1_linear_150_485)"/>
<path d="M25.1504 21.7599C25.8644 21.7813 26.5468 21.8986 27.1978 22.1119C27.7438 22.2826 28.3003 22.5706 28.8672 22.9759C29.4342 23.3599 29.8752 23.9146 30.1902 24.6399L33.0251 31.04L34.6 31.52V32H30.1902C29.2452 32 28.4683 31.7547 27.8593 31.264C27.2503 30.752 26.7673 30.0907 26.4103 29.28L23.2605 22.0799H21.2131V31.04L23.418 31.52V32H14.1259V31.52L16.0158 31.04V10.5598L14.1259 10.0798V9.59983H22.473C24.3629 9.59983 25.9484 9.75983 27.2293 10.0798C28.5103 10.3785 29.5392 10.8052 30.3162 11.3598C31.1141 11.8932 31.6811 12.5438 32.0171 13.3119C32.3741 14.0799 32.5526 14.9225 32.5526 15.8399C32.5526 16.5652 32.4476 17.2052 32.2376 17.7599C32.0276 18.2932 31.7441 18.7732 31.3871 19.1999C31.0511 19.6052 30.6522 19.9466 30.1902 20.2239C29.7492 20.5012 29.2977 20.7252 28.8357 20.8959C27.7438 21.3226 26.5153 21.5573 25.1504 21.5999V21.7599ZM22.473 21.2799C23.901 21.2799 25.0454 20.8212 25.9064 19.9039C26.7673 18.9652 27.1978 17.6106 27.1978 15.8399C27.1978 14.0692 26.7673 12.7252 25.9064 11.8078C25.0454 10.8692 23.901 10.3998 22.473 10.3998H21.2131V21.2799H22.473Z" fill="url(#paint2_linear_150_485)"/>
<path d="M1.64993 3.77127L5.36207 0L9.07421 3.77127L5.36207 7.54253L1.64993 3.77127Z" fill="url(#paint3_linear_150_485)"/>
<defs>
<linearGradient id="paint0_linear_150_485" x1="9.09998" y1="6.4" x2="25.9135" y2="25.1576" gradientUnits="userSpaceOnUse">
<stop stop-color="#680EC8"/>
<stop offset="1" stop-color="#667EEA"/>
</linearGradient>
<linearGradient id="paint1_linear_150_485" x1="9.09998" y1="6.4" x2="25.9135" y2="25.1576" gradientUnits="userSpaceOnUse">
<stop stop-color="#680EC8"/>
<stop offset="1" stop-color="#667EEA"/>
</linearGradient>
<linearGradient id="paint2_linear_150_485" x1="9.09998" y1="6.4" x2="25.9135" y2="25.1576" gradientUnits="userSpaceOnUse">
<stop stop-color="#680EC8"/>
<stop offset="1" stop-color="#667EEA"/>
</linearGradient>
<linearGradient id="paint3_linear_150_485" x1="5.58731" y1="-1.33334" x2="9.05238" y2="11.0289" gradientUnits="userSpaceOnUse">
<stop stop-color="#680EC8"/>
<stop offset="1" stop-color="#667EEA"/>
</linearGradient>
</defs>
</svg>
